<?xml version="1.0" encoding="utf-8"?>
<!-- Generator: Adobe Illustrator 18.0.0, SVG Export Plug-In . SVG Version: 6.00 Build 0)  -->
<!DOCTYPE svg PUBLIC "-//W3C//DTD SVG 1.1//EN" "http://www.w3.org/Graphics/SVG/1.1/DTD/svg11.dtd">
<svg version="1.1" id="Layer_1" xmlns="http://www.w3.org/2000/svg" xmlns:xlink="http://www.w3.org/1999/xlink" x="0px" y="0px"
	 viewBox="0 0 960 560" enable-background="new 0 0 960 560" xml:space="preserve">
<g>
	<g>
		<defs>
			<rect id="SVGID_1_" x="270" y="91" width="378" height="378"/>
		</defs>
		<clipPath id="SVGID_2_">
			<use xlink:href="#SVGID_1_"  overflow="visible"/>
		</clipPath>
		<rect x="270" y="77" clip-path="url(#SVGID_2_)" fill="#F0F0F0" width="468" height="392"/>
		<rect x="270" y="77" clip-path="url(#SVGID_2_)" fill="#F0F0F0" width="468" height="392"/>
	</g>
	<rect x="296.8" y="108.5" fill="#FFFFFF" width="342.5" height="342.5"/>
	<text transform="matrix(1 0 0 1 429.998 102.6104)" fill="#231F20" font-family="'GillSans-Bold'" font-size="15">Radius = </text>
	<text transform="matrix(1 0 0 1 497.1074 102.6104)" fill="#231F20" font-family="'GillSans-Bold'" font-size="15">3</text>
	<path fill="none" stroke="#20908C" stroke-width="0.5" stroke-linejoin="round" stroke-miterlimit="10" d="M337.8,293.5l-4,6.9
		l-2.2,6.8L331,314l0.7,6.8l2.2,6.9l4,6.9 M337.8,334.6L337.8,334.6l6.9,6.9 M344.7,286.6l-6.9,6.9l0,0 M344.7,341.4L344.7,341.4
		l6.8,4.1 M351.5,282.7l-6.8,4l0,0 M351.5,345.6l6.1,2.7l0.8,0.3 M358.4,280.5l-6.9,2.2 M358.4,348.6l6.9,2.2 M365.2,279.8l-6.9,0.7
		 M365.2,350.8l6.8,1.4 M372.1,280.5l-6.8-0.7 M372.1,236.2l-1.5,2.5l-2.4,6.8l-0.9,6.9l0.5,6.9l2.5,6.9l1.7,3.3 M372.1,352.2
		l6.9,0.7 M378.9,280l-6.9,0.5 M372.1,269.4l2.2,3.6l4.7,6.6 M378.9,228l-3.8,3.9l-3,4.3 M378.9,352.9l6.9,0.1 M378.9,279.5l0.2,0.2
		l-0.2,0.2 M385.8,223.4l-2.7,1.6l-4.2,3 M385.8,353l6.8-0.6 M392.6,220.9l-6.8,2.4 M392.6,352.4l6.9-1.3 M399.5,220.1l-6.9,0.9
		 M399.5,351.1l6.8-2 M406.3,220.6l-6.8-0.5 M406.3,349l1.8-0.7l5-2.1 M413.2,222.3l-6.9-1.7 M413.2,346.2l6.9-3.8 M420,225.3
		l-0.7-0.3l-6.1-2.7 M420,342.4l1.4-0.9l5.5-4 M426.9,229.8l-6.9-4.5 M426.9,337.4l3.3-2.8l3.6-3.6 M433.8,235.9l-4.4-4.1l-2.5-2
		 M433.8,331l2.9-3.3l3.9-5.3 M440.6,244.3l-4.3-5.6l-2.5-2.8 M440.6,322.4l1.1-1.6l3.8-6.8l1.9-4.5 M447.5,257.1l-2.1-4.7l-3.9-6.9
		l-0.8-1.2 M447.5,309.5l1-2.4l2.1-6.8l1.4-6.9l0.7-6.9l0-6.8l-0.7-6.9l-1.4-6.8l-2.1-6.9l-0.9-2.1"/>
	<path fill="none" stroke="#DFDFDF" stroke-width="0.5" stroke-linejoin="bevel" stroke-miterlimit="10" stroke-dasharray="1,3" d="
		M296.8,451V108.5 M365.2,451V108.5 M433.8,451V108.5 M502.2,451V108.5 M570.8,451V108.5 M639.2,451V108.5 M639.2,451H296.8
		 M639.2,416.8H296.8 M639.2,382.5H296.8 M639.2,348.3H296.8 M639.2,314H296.8 M639.2,279.8H296.8 M639.2,245.5H296.8 M639.2,211.3
		H296.8 M639.2,177H296.8 M639.2,142.8H296.8 M639.2,108.5H296.8"/>
	
		<path fill="none" stroke="#262626" stroke-width="0.5" stroke-linecap="square" stroke-linejoin="round" stroke-miterlimit="10" d="
		M296.8,451h342.5 M296.8,108.5h342.5 M296.8,451v-3.4 M365.2,451v-3.4 M433.8,451v-3.4 M502.2,451v-3.4 M570.8,451v-3.4 M639.2,451
		v-3.4 M296.8,108.5v3.4 M365.2,108.5v3.4 M433.8,108.5v3.4 M502.2,108.5v3.4 M570.8,108.5v3.4 M639.2,108.5v3.4"/>
	<text transform="matrix(1 0 0 1 286.25 466.8311)" fill="#4D4D4F" font-family="'GillSans'" font-size="14">-10</text>
	<text transform="matrix(1 0 0 1 361.25 466.8311)" fill="#4D4D4F" font-family="'GillSans'" font-size="14" letter-spacing="56">01</text>
	<text transform="matrix(1 0 0 1 433.5293 466.8311)" fill="#4D4D4F" font-family="'GillSans'" font-size="14" letter-spacing="52">02</text>
	<text transform="matrix(1 0 0 1 502.0312 466.8311)" fill="#4D4D4F" font-family="'GillSans'" font-size="14" letter-spacing="52">03</text>
	<text transform="matrix(1 0 0 1 570.5293 466.8311)" fill="#4D4D4F" font-family="'GillSans'" font-size="14" letter-spacing="52">04</text>
	<text transform="matrix(1 0 0 1 639.0312 466.8311)" fill="#4D4D4F" font-family="'GillSans'" font-size="14">0</text>
	
		<path fill="none" stroke="#262626" stroke-width="0.5" stroke-linecap="square" stroke-linejoin="round" stroke-miterlimit="10" d="
		M296.8,451V108.5 M639.2,451V108.5 M296.8,451h3.4 M296.8,416.8h3.4 M296.8,382.5h3.4 M296.8,348.3h3.4 M296.8,314h3.4
		 M296.8,279.8h3.4 M296.8,245.5h3.4 M296.8,211.3h3.4 M296.8,177h3.4 M296.8,142.8h3.4 M296.8,108.5h3.4 M639.2,451h-3.4
		 M639.2,416.8h-3.4 M639.2,382.5h-3.4 M639.2,348.3h-3.4 M639.2,314h-3.4 M639.2,279.8h-3.4 M639.2,245.5h-3.4 M639.2,211.3h-3.4
		 M639.2,177h-3.4 M639.2,142.8h-3.4 M639.2,108.5h-3.4"/>
	<text transform="matrix(1 0 0 1 270.9434 454.5264)" fill="#4D4D4F" font-family="'GillSans'" font-size="14">-20</text>
	<text transform="matrix(1 0 0 1 270.9434 420.2764)" fill="#4D4D4F" font-family="'GillSans'" font-size="14">-15</text>
	<text transform="matrix(1 0 0 1 270.9434 386.0322)" fill="#4D4D4F" font-family="'GillSans'" font-size="14">-10</text>
	<text transform="matrix(1 0 0 1 278.9453 351.7822)" fill="#4D4D4F" font-family="'GillSans'" font-size="14">-5</text>
	<text transform="matrix(1 0 0 1 283.9512 317.5264)" fill="#4D4D4F" font-family="'GillSans'" font-size="14">0</text>
	<text transform="matrix(1 0 0 1 283.9512 283.2822)" fill="#4D4D4F" font-family="'GillSans'" font-size="14">5</text>
	<text transform="matrix(1 0 0 1 275.9512 249.0322)" fill="#4D4D4F" font-family="'GillSans'" font-size="14">10</text>
	<text transform="matrix(1 0 0 1 275.9512 214.7842)" fill="#4D4D4F" font-family="'GillSans'" font-size="14">15</text>
	<text transform="matrix(1 0 0 1 275.9512 180.5342)" fill="#4D4D4F" font-family="'GillSans'" font-size="14">20</text>
	<text transform="matrix(1 0 0 1 275.9512 146.2822)" fill="#4D4D4F" font-family="'GillSans'" font-size="14">25</text>
	<text transform="matrix(1 0 0 1 275.9512 112.0322)" fill="#4D4D4F" font-family="'GillSans'" font-size="14">30</text>
</g>
<path fill="none" stroke="#20908C" stroke-width="0.5" stroke-linejoin="round" stroke-miterlimit="10" d="M344.7,341.7l6.9,4
	l6.8,2.2l6.9,0.7l6.9-0.7l6.9-2.2l6.9-4 M385.8,341.7L385.8,341.7l6.9-6.9 M337.8,334.9l6.9,6.9l0,0 M392.6,334.9L392.6,334.9
	l4.3-6.9 M333.9,328l4,6.9l0,0 M397,328l2.5-4.3l1.5-2.5 M331.7,321.2l2.2,6.9 M401,321.2l4-6.8 M331,314.3l0.7,6.8 M404.9,314.3
	l1.4-2.4l2.5-4.4 M331.7,307.5l-0.7,6.9 M408.9,307.5l4-6.9 M333.9,300.6l-2.2,6.9 M412.8,300.6l0.4-0.6l3.6-6.2 M337.5,293.8
	l-3.6,6.9 M416.8,293.8l3.2-5.6l0.7-1.2 M341.4,286.9l-3.6,6.2l-0.4,0.6 M420.8,286.9l4-6.9 M345.4,280.1l-0.7,1.2l-3.3,5.7
	 M424.7,280.1l2.2-3.8l1.8-3 M349.3,273.2l-4,6.9 M428.7,273.2l4-6.9 M353.3,266.4l-1.7,3l-2.2,3.9 M432.6,266.4l1.1-2l2.8-4.9
	 M357.2,259.5l-4,6.9 M436.6,259.5l4-6.9 M361.2,252.7l-2.8,4.8l-1.2,2 M440.5,252.7l0.1-0.2l3.9-6.7 M365.1,245.8l-4,6.8
	 M444.5,245.8l3-5.2l1-1.7 M369.1,239l-3.8,6.7l-0.1,0.2 M448.4,239l3.9-6.9 M373,232.1l-0.9,1.6l-3,5.2 M452.3,232.1l2-3.4l2-3.5
	 M377,225.3l-4,6.8 M456.3,225.3l3.9-6.9 M381,218.4l-2,3.5l-1.9,3.4 M460.2,218.4l0.9-1.6l3-5.3 M384.9,211.6l-4,6.9 M464.2,211.6
	l3.8-6.7l0.1-0.2 M388.9,204.7l-3.1,5.3l-0.9,1.5 M468.1,204.7l3.9-6.9 M392.8,197.9l-0.2,0.3l-3.8,6.5 M472,197.9l2.9-5.2l0.9-1.6
	 M396.8,191l-4,6.9 M475.8,191l3.6-6.9 M400.8,184.2l-1.3,2.2l-2.7,4.7 M479.4,184.2l2.3-4.7l1.1-2.2 M404.7,177.3l-4,6.9
	 M482.8,177.3l2.9-6.9 M408.7,170.5l-2.4,4.1l-1.6,2.8 M485.7,170.5l2.4-6.8 M412.7,163.6l-4,6.8 M488.1,163.6l0.5-2.1l1-4.7
	 M416.8,156.8l-3.6,6l-0.5,0.9 M489.6,156.8l0.4-6.9 M421,149.9l-0.9,1.5l-3.3,5.4 M490,149.9l-0.9-6.9 M425.5,143.1l-4.5,6.9
	 M489.1,143.1l-0.5-1.4l-2.4-5.5 M430.6,136.2l-3.7,4.8l-1.4,2 M486.2,136.2l-4.5-6l-0.8-0.8 M437,129.4l-3.3,3.2l-3.1,3.7
	 M480.9,129.4l-6.1-4.7l-4.2-2.1 M446.9,122.5l-6.3,3.8l-3.6,3.1 M470.7,122.5l-2.7-1.2l-6.8-1.4l-6.9,0.3l-6.8,2l-0.6,0.3"/>
<ellipse fill="none" stroke="#000000" stroke-width="0.5" stroke-miterlimit="10" cx="365.2" cy="314.1" rx="34.2" ry="34.1"/>
</svg>
